< ? xml version="1.0" standalone="no"? >
<!DOCTYPE svg PUBLIC "-//W3C//DTD SVG 20010904//EN"
 "http://www.w3.org/TR/2001/REC-SVG-20010904/DTD/svg10.dtd">
<svg version="1.0" xmlns="http://www.w3.org/2000/svg"
 width="158.000000pt" height="130.000000pt" viewBox="0 0 158.000000 130.000000"
 preserveAspectRatio="xMidYMid meet">

<g transform="translate(0.000000,130.000000) scale(0.100000,-0.100000)"
fill="#4FA74F" stroke="none">
<path d="M1368 1253 c-9 -10 -28 -60 -44 -110 l-27 -93 -527 0 c-498 0 -528
-1 -543 -18 -20 -21 -21 -43 -7 -86 6 -17 40 -134 75 -260 36 -126 70 -235 76
-242 9 -11 81 -14 370 -14 197 0 360 -3 362 -7 5 -9 -27 -110 -38 -121 -3 -4
-140 -7 -303 -8 -215 0 -303 -4 -320 -13 -33 -17 -62 -70 -62 -111 0 -67 69
-140 133 -140 71 0 137 61 137 128 l0 32 125 0 125 0 0 -32 c0 -99 118 -161
201 -105 50 33 71 81 64 144 -5 38 -1 69 15 120 12 37 41 133 65 213 24 80 60
199 80 265 20 66 53 176 74 245 l37 125 49 3 c57 4 75 15 75 47 0 40 -30 55
-107 55 -54 0 -73 -4 -85 -17z m-108 -319 c0 -9 -95 -327 -113 -376 l-9 -28
-348 0 -347 0 -53 188 c-29 103 -55 195 -58 205 -4 16 23 17 462 17 256 0 466
-3 466 -6z"/>
</g>
</svg>
